<svg width="914" height="400" fill="none" xmlns="http://www.w3.org/2000/svg">
  <path fill="#fff" d="M0 0h914v400H0z"/>
  <path d="M368.654 209c.7 0 1.26-.56 1.26-1.26s-.56-1.26-1.26-1.26h-.672v-4.844c0-1.708.7-2.996 2.8-2.996 1.82 0 2.464 1.092 2.464 2.688v5.152h-.672c-.7 0-1.26.56-1.26 1.26 0 .728.56 1.26 1.26 1.26h4.368c.7 0 1.26-.56 1.26-1.26s-.56-1.26-1.26-1.26h-.672v-5.18c0-1.568.784-2.66 2.8-2.66 1.82 0 2.464 1.092 2.464 2.688v5.152h-.672c-.7 0-1.26.56-1.26 1.26 0 .728.56 1.26 1.26 1.26h4.368c.7 0 1.26-.56 1.26-1.26s-.56-1.26-1.26-1.26h-.672v-5.712c0-2.436-1.036-4.872-4.844-4.872-1.904 0-3.108.616-4.004 1.82-.7-1.092-1.848-1.82-4.144-1.82-1.876 0-3.052.868-3.584 1.68 0-.812-.616-1.288-1.428-1.288h-2.268c-.7 0-1.26.56-1.26 1.26 0 .728.56 1.26 1.26 1.26h.672v7.672h-.672c-.7 0-1.26.56-1.26 1.26 0 .728.56 1.26 1.26 1.26h4.368zm24.412 0c.7 0 1.26-.56 1.26-1.26s-.56-1.26-1.26-1.26h-.672v-2.604l1.176-1.064 3.724 5.6c.224.336.56.588 1.092.588h2.072c.7 0 1.26-.56 1.26-1.26s-.56-1.26-1.26-1.26h-1.064l-3.836-5.488 2.464-2.184h1.456c.7 0 1.26-.56 1.26-1.26s-.56-1.26-1.26-1.26h-1.96c-.364 0-.588.112-.868.364l-4.256 3.948v-10.08c0-.812-.616-1.456-1.428-1.456h-2.268c-.7 0-1.26.56-1.26 1.26 0 .728.56 1.26 1.26 1.26h.672v14.896h-.672c-.7 0-1.26.56-1.26 1.26 0 .728.56 1.26 1.26 1.26h4.368zm15.332.364c2.296 0 3.836-1.008 4.48-1.596.336-.308.476-.672.476-1.036 0-.756-.588-1.344-1.344-1.344-.252 0-.532.056-.84.28-.644.476-1.484 1.12-2.772 1.12-1.96 0-3.024-1.484-3.024-4.172 0-2.632 1.064-4.144 3.024-4.144 1.4 0 2.128.728 2.492 1.092.252.252.588.476 1.036.476.756 0 1.344-.588 1.344-1.344 0-.336-.084-.56-.308-.868-.476-.644-1.988-1.932-4.564-1.932-3.78 0-6.076 2.156-6.076 6.72s2.296 6.748 6.076 6.748zm12.099-.364c.7 0 1.26-.56 1.26-1.26s-.56-1.26-1.26-1.26h-.672v-4.592c0-1.876 1.092-3.108 3.024-3.108.784 0 1.428-.644 1.428-1.428 0-.784-.644-1.428-1.428-1.428-1.176 0-2.492.7-3.024 1.792v-.14c0-.784-.644-1.288-1.4-1.288h-2.296c-.7 0-1.26.56-1.26 1.26 0 .728.56 1.26 1.26 1.26h.672v7.672h-.672c-.7 0-1.26.56-1.26 1.26 0 .728.56 1.26 1.26 1.26h4.368zm17.334-10.192c.7 0 1.26-.56 1.26-1.26s-.56-1.26-1.26-1.26h-3.808c-.7 0-1.26.56-1.26 1.26 0 .728.56 1.26 1.26 1.26h.252l-2.352 5.992-2.38-5.992h.28c.7 0 1.26-.56 1.26-1.26s-.56-1.26-1.26-1.26h-3.808c-.7 0-1.26.56-1.26 1.26 0 .728.56 1.26 1.26 1.26h.308l4.032 9.296c-.924 2.296-1.764 3.724-3.556 3.724-.812 0-1.456.588-1.456 1.4 0 .812.644 1.4 1.456 1.4 2.8 0 4.592-1.96 5.796-4.704l4.928-11.116h.308zm3.312-2.52c-.7 0-1.26.56-1.26 1.26s.56 1.26 1.26 1.26h.672v13.3h-.672c-.7 0-1.26.56-1.26 1.26s.56 1.26 1.26 1.26h4.816c.7 0 1.26-.56 1.26-1.26s-.56-1.26-1.26-1.26h-1.12v-3.948c.672.756 1.904 1.204 3.304 1.204 3.64 0 5.684-2.184 5.684-6.748s-2.016-6.72-5.684-6.72c-1.568 0-2.884.98-3.304 1.68 0-.84-.672-1.288-1.512-1.288h-2.184zm6.608 10.5c-1.96 0-2.996-1.4-2.996-4.144 0-2.772 1.036-4.172 2.996-4.172s2.996 1.4 2.996 4.172c0 2.744-1.036 4.144-2.996 4.144zm9.428-10.5h-.644c-.7 0-1.26.56-1.26 1.26s.56 1.26 1.26 1.26h.644v6.608c0 2.212 1.624 3.808 4.256 3.808.728 0 1.316-.588 1.316-1.316 0-.728-.588-1.316-1.316-1.316-.616 0-1.288-.364-1.288-1.008v-6.776h1.26c.7 0 1.26-.56 1.26-1.26s-.56-1.26-1.26-1.26h-1.26v-2.352c0-.812-.672-1.484-1.484-1.484-.812 0-1.484.672-1.484 1.484v2.352zm8.081 0c-.7 0-1.26.56-1.26 1.26s.56 1.26 1.26 1.26h.672v13.3h-.672c-.7 0-1.26.56-1.26 1.26s.56 1.26 1.26 1.26h4.816c.7 0 1.26-.56 1.26-1.26s-.56-1.26-1.26-1.26h-1.12v-3.948c.672.756 1.904 1.204 3.304 1.204 3.64 0 5.684-2.184 5.684-6.748s-2.016-6.72-5.684-6.72c-1.568 0-2.884.98-3.304 1.68 0-.84-.672-1.288-1.512-1.288h-2.184zm6.608 10.5c-1.96 0-2.996-1.4-2.996-4.144 0-2.772 1.036-4.172 2.996-4.172s2.996 1.4 2.996 4.172c0 2.744-1.036 4.144-2.996 4.144zm19.76 2.212c.7 0 1.26-.56 1.26-1.26s-.56-1.26-1.26-1.26h-.672v-5.908c0-2.968-2.072-4.676-5.544-4.676-2.408 0-3.808.924-4.592 1.792-.252.28-.364.616-.364.924 0 .728.588 1.316 1.316 1.316.336 0 .56-.084.84-.28.7-.504 1.568-1.064 2.8-1.064 1.624 0 2.548.84 2.548 2.1v.504h-3.668c-2.436 0-4.536 1.344-4.536 3.948 0 2.52 1.82 4.228 4.564 4.228 1.68 0 2.912-.42 3.668-1.624 0 .7.616 1.26 1.372 1.26h2.268zm-8.848-3.864c0-1.008.672-1.596 1.904-1.596h3.276v.784c0 1.568-1.372 2.52-2.856 2.52-1.568 0-2.324-.644-2.324-1.708zm18.811-5.712c.308.224.56.392.952.392.728 0 1.344-.616 1.344-1.344 0-.42-.112-.616-.28-.84-.784-.98-2.548-1.736-4.536-1.736-2.576 0-4.676 1.232-4.676 3.752 0 4.76 6.86 3.584 6.86 5.852 0 .784-.812 1.12-2.072 1.12-1.4 0-2.324-.532-3.08-1.148-.308-.252-.588-.336-.868-.336-.728 0-1.344.616-1.344 1.344 0 .336.112.588.336.868.7.868 2.548 1.96 4.956 1.96 2.884 0 5.124-1.344 5.124-3.976 0-4.62-6.888-3.668-6.888-5.74 0-.7.616-1.064 1.652-1.064 1.148 0 1.904.448 2.52.896zm12.058 0c.308.224.56.392.952.392.728 0 1.344-.616 1.344-1.344 0-.42-.112-.616-.28-.84-.784-.98-2.548-1.736-4.536-1.736-2.576 0-4.676 1.232-4.676 3.752 0 4.76 6.86 3.584 6.86 5.852 0 .784-.812 1.12-2.072 1.12-1.4 0-2.324-.532-3.08-1.148-.308-.252-.588-.336-.868-.336-.728 0-1.344.616-1.344 1.344 0 .336.112.588.336.868.7.868 2.548 1.96 4.956 1.96 2.884 0 5.124-1.344 5.124-3.976 0-4.62-6.888-3.668-6.888-5.74 0-.7.616-1.064 1.652-1.064 1.148 0 1.904.448 2.52.896zm21.754-.616c.7 0 1.26-.56 1.26-1.26s-.56-1.26-1.26-1.26h-3.556c-.7 0-1.26.56-1.26 1.26 0 .728.56 1.26 1.26 1.26h.252l-1.792 5.432-1.96-6.944c-.14-.476-.644-1.008-1.344-1.008-.84 0-1.288.588-1.428 1.092l-1.932 6.72-1.792-5.292h.336c.7 0 1.26-.56 1.26-1.26s-.56-1.26-1.26-1.26h-3.724c-.7 0-1.26.56-1.26 1.26 0 .728.56 1.26 1.26 1.26h.28l3.556 9.436c.224.56.7.98 1.428.98.7 0 1.26-.448 1.456-1.092l1.736-6.104 1.736 6.132c.168.616.756 1.064 1.456 1.064.672 0 1.176-.336 1.4-.952l3.584-9.464h.308zm10.17-7.224h.7v5.432c-.56-.56-1.736-1.12-3.08-1.12-3.528 0-5.684 2.184-5.684 6.748s2.212 6.72 5.656 6.72c1.288 0 2.352-.42 3.22-1.316.168.532.728.952 1.4.952h2.212c.7 0 1.26-.56 1.26-1.26s-.56-1.26-1.26-1.26h-.7v-15.904c0-.84-.672-1.512-1.512-1.512h-2.212c-.7 0-1.26.56-1.26 1.26s.56 1.26 1.26 1.26zm.7 8.316v4.396c0 1.54-1.12 2.492-2.828 2.492-1.904 0-2.94-1.4-2.94-4.144 0-2.772 1.092-4.172 2.996-4.172 1.68 0 2.772 1.428 2.772 1.428z" fill="#333"/>
</svg>
